<?xml version="1.0" standalone="no"?>
<!DOCTYPE svg PUBLIC "-//W3C//DTD SVG 20010904//EN"
 "http://www.w3.org/TR/2001/REC-SVG-20010904/DTD/svg10.dtd">
<svg version="1.0" xmlns="http://www.w3.org/2000/svg"
 width="200.000000pt" height="127.000000pt" viewBox="0 0 200.000000 127.000000"
 preserveAspectRatio="xMidYMid meet">

<g transform="translate(0.000000,127.000000) scale(0.100000,-0.100000)"
fill="#000000" stroke="none">
<path d="M900 1230 c0 -21 5 -30 16 -30 11 0 14 5 10 16 -3 9 -6 22 -6 30 0 8
-4 14 -10 14 -5 0 -10 -13 -10 -30z"/>
<path d="M960 1190 c0 -40 4 -70 10 -70 6 0 10 30 10 70 0 40 -4 70 -10 70 -6
0 -10 -30 -10 -70z"/>
<path d="M1014 1234 c-4 -14 -2 -30 5 -37 8 -8 11 -7 11 4 0 7 3 24 6 37 4 13
2 22 -5 22 -6 0 -14 -12 -17 -26z"/>
<path d="M848 1220 c2 -16 10 -30 16 -30 8 0 11 11 8 30 -2 17 -10 30 -16 30
-8 0 -11 -11 -8 -30z"/>
<path d="M1068 1220 c-3 -19 0 -30 8 -30 6 0 14 14 16 30 3 19 0 30 -8 30 -6
0 -14 -13 -16 -30z"/>
<path d="M790 1223 c0 -22 17 -49 25 -41 8 8 -5 58 -16 58 -5 0 -9 -8 -9 -17z"/>
<path d="M1121 1210 c-8 -24 -7 -30 3 -30 12 0 25 28 26 53 0 19 -19 4 -29
-23z"/>
<path d="M737 1223 c-7 -12 36 -126 50 -130 8 -3 5 17 -9 59 -22 66 -32 85
-41 71z"/>
<path d="M1166 1168 c-9 -29 -20 -59 -23 -67 -3 -8 0 -12 7 -9 20 6 63 128 47
128 -7 0 -21 -24 -31 -52z"/>
<path d="M685 1178 c4 -13 11 -27 16 -32 15 -16 20 0 10 28 -13 32 -35 36 -26
4z"/>
<path d="M1230 1181 c-12 -24 -13 -41 -2 -41 8 0 32 43 32 55 0 13 -21 3 -30
-14z"/>
<path d="M636 1172 c-7 -12 13 -62 25 -62 16 0 16 16 -1 43 -10 16 -21 24 -24
19z"/>
<path d="M1278 1150 c-9 -16 -13 -32 -9 -35 12 -7 45 45 34 56 -4 4 -16 -5
-25 -21z"/>
<path d="M586 1141 c-9 -13 23 -63 35 -55 9 5 4 18 -19 53 -7 9 -12 10 -16 2z"/>
<path d="M1327 1124 c-25 -33 -11 -51 15 -19 12 15 17 30 12 35 -5 5 -17 -2
-27 -16z"/>
<path d="M538 1104 c-4 -5 15 -33 41 -63 26 -30 50 -50 54 -45 3 6 -16 34 -42
64 -26 29 -50 50 -53 44z"/>
<path d="M1343 1057 c-56 -70 -42 -83 17 -16 43 48 53 70 32 68 -4 0 -26 -23
-49 -52z"/>
<path d="M490 1062 c0 -14 46 -53 53 -45 4 3 -3 17 -15 30 -22 23 -38 30 -38
15z"/>
<path d="M1412 1047 c-12 -13 -19 -26 -16 -30 7 -7 54 33 54 46 0 14 -17 7
-38 -16z"/>
<path d="M455 1021 c-3 -5 5 -17 17 -25 42 -29 54 -13 13 17 -13 9 -26 13 -30
8z"/>
<path d="M1446 1005 c-23 -35 -20 -39 14 -14 16 12 27 26 24 31 -9 14 -21 9
-38 -17z"/>
<path d="M1190 774 c-169 -168 -220 -223 -203 -224 11 0 32 -13 46 -29 l25
-30 168 235 c201 279 197 274 193 273 -2 0 -105 -102 -229 -225z"/>
<path d="M420 971 c0 -14 48 -42 55 -32 3 5 -5 17 -17 25 -25 18 -38 20 -38 7z"/>
<path d="M1479 961 c-13 -11 -21 -22 -17 -26 8 -8 58 23 58 36 0 14 -16 10
-41 -10z"/>
<path d="M390 928 c0 -17 108 -80 122 -72 5 3 -5 15 -24 26 -18 11 -48 29 -65
40 -25 15 -33 16 -33 6z"/>
<path d="M1483 903 c-35 -21 -59 -41 -54 -46 6 -6 80 30 120 59 1 2 1 7 0 13
-2 6 -32 -6 -66 -26z"/>
<path d="M360 872 c0 -13 50 -33 62 -26 6 4 1 12 -13 20 -28 15 -49 18 -49 6z"/>
<path d="M1532 867 c-12 -7 -20 -16 -16 -19 8 -9 64 12 64 23 0 13 -21 11 -48
-4z"/>
<path d="M340 820 c0 -15 51 -33 62 -22 6 6 -3 14 -23 21 -39 13 -39 13 -39 1z"/>
<path d="M1555 816 c-18 -7 -25 -15 -18 -19 13 -8 63 12 63 25 0 11 -9 10 -45
-6z"/>
<path d="M320 766 c0 -13 58 -31 68 -21 8 8 -2 15 -37 25 -23 6 -31 5 -31 -4z"/>
<path d="M1560 760 c-8 -5 -12 -11 -9 -15 8 -8 69 6 69 16 0 12 -41 11 -60 -1z"/>
<path d="M10 740 c0 -6 47 -10 128 -10 114 -1 125 -2 108 -15 -14 -11 -47 -15
-118 -15 -54 0 -98 -4 -98 -9 0 -5 11 -36 25 -68 l26 -59 -36 -83 c-19 -45
-35 -84 -35 -86 0 -2 26 -5 58 -7 54 -3 57 -4 60 -30 l3 -28 874 0 874 0 3 28
c3 25 6 27 60 30 l56 3 -43 87 -42 87 22 45 c47 94 49 90 -57 90 -67 0 -100 4
-114 15 -17 13 -6 14 109 15 83 0 126 4 122 10 -4 6 -65 10 -151 10 l-144 0 0
-50 0 -50 -62 2 c-143 6 -458 -2 -458 -12 0 -6 125 -10 356 -10 280 0 355 -3
352 -12 -4 -10 -90 -14 -371 -18 l-366 -5 -44 -60 c-24 -33 -49 -77 -56 -97
-16 -50 -45 -73 -91 -73 -56 0 -90 35 -90 92 0 33 6 50 25 68 13 14 30 25 38
25 7 0 24 11 37 25 l23 25 -431 0 c-377 0 -432 2 -432 15 0 13 57 15 449 15
267 0 452 4 456 9 3 6 -135 11 -354 13 -198 2 -363 6 -367 10 -4 4 -7 25 -8
45 l-1 38 -147 3 c-97 2 -148 -1 -148 -8z m335 -235 c16 -49 17 -50 27 -17 8
28 13 33 36 30 25 -3 27 -6 30 -60 3 -53 1 -58 -18 -58 -15 0 -20 7 -21 28
l-1 27 -11 -27 c-15 -39 -43 -36 -53 5 l-8 32 -3 -32 c-3 -25 -9 -33 -24 -33
-16 0 -19 7 -19 53 0 30 3 57 7 60 12 13 54 7 58 -8z m155 -35 c6 -58 24 -58
30 0 4 37 9 45 25 45 16 0 21 -8 23 -40 4 -54 -16 -79 -62 -79 -44 0 -55 10
-63 57 -7 45 2 69 24 65 13 -2 19 -16 23 -48z m151 18 l14 -33 5 30 c3 18 12
31 23 33 15 3 17 -5 17 -57 0 -53 -2 -61 -19 -61 -11 0 -29 12 -40 28 l-20 27
-1 -27 c0 -21 -5 -28 -20 -28 -17 0 -20 7 -20 53 0 30 3 57 7 60 16 17 42 5
54 -25z m177 16 c25 -17 31 -71 10 -92 -7 -7 -34 -12 -60 -12 l-48 0 0 60 0
60 38 0 c21 0 48 -7 60 -16z m360 -16 c2 -16 7 -28 12 -28 5 0 10 12 12 28 3
23 8 27 33 27 30 0 30 -1 33 -57 3 -53 1 -58 -18 -58 -15 0 -20 7 -21 28 l-1
27 -11 -27 c-13 -33 -47 -39 -47 -9 0 11 -5 23 -11 27 -8 5 -10 -1 -7 -20 4
-21 2 -26 -16 -26 -19 0 -21 5 -19 57 1 32 2 59 2 61 1 2 13 2 29 0 21 -2 28
-9 30 -30z m210 16 c15 -10 22 -25 22 -48 0 -37 -12 -51 -52 -61 -21 -5 -33
-1 -52 19 -31 30 -33 59 -6 86 24 24 57 26 88 4z m147 -4 c0 -8 -7 -15 -15
-15 -10 0 -16 -13 -18 -42 -3 -34 -7 -43 -22 -43 -15 0 -19 9 -22 43 -2 23 -8
42 -15 42 -17 0 -26 12 -18 25 11 17 110 9 110 -10z m125 0 c28 -28 25 -64 -7
-90 -46 -36 -103 -11 -103 46 0 57 69 85 110 44z m135 6 c12 -9 16 -20 12 -36
-3 -12 -2 -33 3 -46 8 -21 7 -24 -14 -24 -16 0 -26 7 -29 21 -7 24 -33 20 -29
-5 2 -11 -4 -16 -22 -16 -23 0 -24 3 -21 58 1 31 3 58 4 60 4 8 80 0 96 -12z"/>
<path d="M776 483 c-3 -4 -6 -17 -6 -30 0 -16 6 -23 20 -23 14 0 20 7 20 24 0
23 -22 41 -34 29z"/>
<path d="M1340 474 c-10 -11 -11 -20 -3 -32 17 -27 38 -20 38 12 0 34 -16 44
-35 20z"/>
<path d="M1607 484 c-12 -13 -7 -52 7 -57 21 -8 42 21 30 41 -12 19 -27 25
-37 16z"/>
<path d="M1745 481 c-3 -5 -1 -12 5 -16 12 -7 30 2 30 16 0 12 -27 12 -35 0z"/>
<path d="M320 712 c0 -16 9 -19 74 -27 38 -5 57 -4 53 2 -4 6 -26 13 -50 16
-23 3 -51 9 -60 13 -9 3 -17 1 -17 -4z"/>
<path d="M1553 706 c-74 -16 -80 -30 -9 -21 68 8 86 13 86 26 0 11 -9 10 -77
-5z"/>
<path d="M910 510 c-43 -43 -14 -120 46 -120 42 0 74 30 74 70 0 60 -78 92
-120 50z"/>
<path d="M130 300 c0 -7 300 -10 881 -10 584 0 878 3 874 10 -9 14 -1755 14
-1755 0z"/>
<path d="M200 200 c-11 -11 -20 -29 -20 -40 0 -26 34 -60 60 -60 22 0 70 41
70 60 0 19 -48 60 -70 60 -11 0 -29 -9 -40 -20z m66 -49 c-4 -6 -16 -11 -27
-11 -21 0 -27 35 -6 43 16 6 41 -18 33 -32z"/>
<path d="M1680 190 c-24 -24 -25 -38 -4 -68 30 -44 114 -18 114 35 0 22 -39
53 -65 53 -14 0 -34 -9 -45 -20z m68 -33 c4 -20 -25 -34 -40 -19 -15 15 -1 44
19 40 10 -2 19 -11 21 -21z"/>
<path d="M130 10 c0 -14 1746 -14 1755 0 4 7 -290 10 -874 10 -581 0 -881 -3
-881 -10z"/>
</g>
</svg>
